<?xml version="1.0" encoding="UTF-8"?><svg id="a" xmlns="http://www.w3.org/2000/svg" width="95" height="auto" fill="#ffffff" viewBox="0 0 54.31 38.59"><defs><style>.b{fill-rule:evenodd;"}</style></defs><g><path  class="b" d="M24.96,28.62s.8-8.24-.2-8.71c-1-.47-4.08-.07-5.29-.4-1.21-.33-1.34-.8-1.34-.8,0,0,.67,.33,2.68,.37,2.01,.03,3.48,.1,4.25-.87,.77-.97-.54-3.45-1.54-4.39-1-.94-1.87-1.14-2.24-1.98-.37-.84-.13-.94-.13-.94,0,0,0,.8,1.51,1.77,1.51,.97,2.38,.33,2.78,.03,.4-.3,.17-2.85-1.07-3.72-1.24-.87-2.78-1-2.78-1,0,0,1.47-.27,2.54,.17,1.07,.44,.94,.33,.94,.33,0,0-.2-1.84-1.1-3.18-.9-1.34-2.65-2.75-2.65-2.75,0,0,.97,.13,2.14,1.17,1.17,1.04,1.21,1.17,1.21,1.17,0,0,.74-.57,1.37-.8s1.1-.17,1.1-.17c0,0-1.34,.7-1.67,1.37-.33,.67-.17,2.14,.03,2.91,.2,.77,.74,3.42,2.08,3.31,1.34-.1,4.52-1.44,4.52-1.44,0,0-3.08,1.77-4.05,1.98-.97,.2-1.91,.84-1.91,2.48s2.48,1.98,3.62,1.37c1.14-.6,4.39-3.75,4.39-3.75,0,0-1.84,3.11-3.65,4.12-1.81,1-3.21,1.51-3.21,1.51,0,0-.17,1.64,.2,4.39,.37,2.75,1.76,6.52,1.76,6.52l-4.27-.1Z"/><path d="M37.24,14.6c0,1.45-1.18,2.63-2.63,2.63s-2.63-1.18-2.63-2.63,1.18-2.63,2.63-2.63,2.63,1.18,2.63,2.63Z"/><path d="M32.6,7.5c0,1.08-.88,1.96-1.96,1.96s-1.96-.88-1.96-1.96,.88-1.96,1.96-1.96,1.96,.88,1.96,1.96Z"/><circle cx="19.12" cy="9.91" r="2.41"/><path d="M19.65,14.6c0,.42-.34,.76-.76,.76s-.76-.34-.76-.76,.34-.76,.76-.76,.76,.34,.76,.76Z"/><path d="M18.94,19.6c0,1.16-.94,2.1-2.1,2.1s-2.1-.94-2.1-2.1,.94-2.1,2.1-2.1,2.1,.94,2.1,2.1Z"/><path d="M23.14,6.38c0,.72-.58,1.29-1.29,1.29s-1.29-.58-1.29-1.29,.58-1.29,1.29-1.29,1.29,.58,1.29,1.29Z"/><path d="M22.13,2.72c0,.47-.38,.85-.85,.85s-.85-.38-.85-.85,.38-.85,.85-.85,.85,.38,.85,.85Z"/><path d="M29.56,2.32c0,1.28-1.04,2.32-2.32,2.32s-2.32-1.04-2.32-2.32,1.04-2.32,2.32-2.32,2.32,1.04,2.32,2.32Z"/><path d="M28.49,6.52c0,.44-.36,.8-.8,.8s-.8-.36-.8-.8,.36-.8,.8-.8,.8,.36,.8,.8Z"/><path d="M31.35,11.61c0,.69-.56,1.25-1.25,1.25s-1.25-.56-1.25-1.25,.56-1.25,1.25-1.25,1.25,.56,1.25,1.25Z"/><path d="M34.03,9.6c0,.22-.18,.4-.4,.4s-.4-.18-.4-.4,.18-.4,.4-.4,.4,.18,.4,.4Z"/><path d="M23.31,17.46c0,.76-.62,1.38-1.38,1.38s-1.38-.62-1.38-1.38,.62-1.38,1.38-1.38,1.38,.62,1.38,1.38Z"/><path d="M18.94,6.25c0,.69-.56,1.25-1.25,1.25s-1.25-.56-1.25-1.25,.56-1.25,1.25-1.25,1.25,.56,1.25,1.25Z"/><path d="M28.49,9.33c0,.37-.3,.67-.67,.67s-.67-.3-.67-.67,.3-.67,.67-.67,.67,.3,.67,.67Z"/><path d="M36.62,11.03c0,.42-.34,.76-.76,.76s-.76-.34-.76-.76,.34-.76,.76-.76,.76,.34,.76,.76Z"/><path d="M32.51,16.92c0,.72-.58,1.29-1.29,1.29s-1.29-.58-1.29-1.29,.58-1.29,1.29-1.29,1.29,.58,1.29,1.29Z"/><path d="M17.6,14.91c0,.99-.8,1.79-1.79,1.79s-1.79-.8-1.79-1.79,.8-1.79,1.79-1.79,1.79,.8,1.79,1.79Z"/><path d="M22.87,15.13c0,.47-.38,.85-.85,.85s-.85-.38-.85-.85,.38-.85,.85-.85,.85,.38,.85,.85Z"/><path d="M20.64,13.48c0,.2-.16,.36-.36,.36s-.36-.16-.36-.36,.16-.36,.36-.36,.36,.16,.36,.36Z"/><path d="M24.03,1.03c0,.57-.46,1.03-1.03,1.03s-1.03-.46-1.03-1.03,.46-1.03,1.03-1.03,1.03,.46,1.03,1.03Z"/><path d="M30.19,14.55c0,.74-.6,1.34-1.34,1.34s-1.34-.6-1.34-1.34,.6-1.34,1.34-1.34,1.34,.6,1.34,1.34Z"/><path d="M29.83,19.15c0,.32-.26,.58-.58,.58s-.58-.26-.58-.58,.26-.58,.58-.58,.58,.26,.58,.58Z"/><path d="M24.65,10.8c0,.54-.44,.98-.98,.98s-.98-.44-.98-.98,.44-.98,.98-.98,.98,.44,.98,.98Z"/><path d="M26.93,8.04c0,.22-.18,.4-.4,.4s-.4-.18-.4-.4,.18-.4,.4-.4,.4,.18,.4,.4Z"/><path d="M33.36,11.55c0,.28-.22,.5-.5,.5s-.5-.22-.5-.5,.23-.5,.5-.5,.5,.22,.5,.5Z"/><path d="M16.42,11.75c0,.5-.41,.9-.9,.9s-.9-.4-.9-.9,.4-.9,.9-.9,.9,.4,.9,.9Z"/><path d="M35.3,18.75c0,.55-.45,1-1,1s-1-.45-1-1,.45-1,1-1,1,.45,1,1Z"/></g><text/><path d="M0,29.93H0c0-.18,.15-.33,.33-.33H7.27c.18,0,.33,.15,.33,.33h0c0,.18-.15,.33-.33,.33h-2.69c-.18,0-.33,.15-.33,.33v5.84c0,.18-.15,.33-.33,.33h-.27c-.18,0-.33-.15-.33-.33v-5.84c0-.18-.15-.33-.33-.33H.33c-.18,0-.33-.15-.33-.33Z"/><path d="M9.33,36.11h4.82c.16,0,.29,.13,.29,.29v.06c0,.16-.13,.29-.29,.29h-5.73c-.16,0-.29-.13-.29-.29v-6.57c0-.16,.13-.29,.29-.29h5.73c.16,0,.29,.13,.29,.29v.07c0,.16-.13,.29-.29,.29h-4.82c-.16,0-.29,.13-.29,.29v2.01c0,.16,.13,.29,.29,.29h3.68c.16,0,.29,.13,.29,.29v.07c0,.16-.13,.29-.29,.29h-3.68c-.16,0-.29,.13-.29,.29v2.02c0,.16,.13,.29,.29,.29Z"/><path d="M21.82,36.49c-.39,.2-.79,.33-1.21,.4s-.92,.1-1.5,.09c-.77,0-1.49-.15-2.16-.43-.67-.28-1.21-.66-1.61-1.13-.6-.67-.83-1.41-.69-2.21,.14-.8,.62-1.49,1.45-2.08,.61-.46,1.13-.8,1.55-1.02s.94-.37,1.56-.46c.86-.14,1.69-.1,2.51,.12,.43,.11,.83,.27,1.18,.46,.45,.25,.48,.88,.06,1.18h0c-.07,.06-.17,.05-.24,0-.51-.42-1.1-.73-1.77-.93-.73-.21-1.49-.28-2.29-.21-.78,.07-1.49,.28-2.13,.62-.02,0-.03,.02-.05,.03-.56,.54-.87,1.14-.93,1.81-.06,.67,.14,1.31,.59,1.89,.46,.59,1.11,1.04,1.96,1.35,.69,.26,1.5,.38,2.45,.36,.94-.02,1.69-.19,2.25-.52,0,0-.59,.49-.98,.68Z"/><path d="M31.03,29.6h0c.25,0,.45,.2,.45,.45v6.25c0,.25-.2,.45-.45,.45h0c-.25,0-.45-.2-.45-.45v-2.35c0-.25-.2-.45-.45-.45h-4.74c-.25,0-.45,.2-.45,.45v2.35c0,.25-.2,.45-.45,.45h0c-.25,0-.45-.2-.45-.45v-6.25c0-.25,.2-.45,.45-.45h0c.25,0,.45,.2,.45,.45v2.36c0,.25,.2,.45,.45,.45h4.74c.25,0,.45-.2,.45-.45v-2.36c0-.25,.2-.45,.45-.45Z"/><path d="M33.2,31.84v4.31c0,.24-.2,.44-.45,.44h-.01c-.25,0-.45-.2-.45-.44v-6.15c0-.24,.2-.44,.45-.44h.85c.14,0,.27,.06,.35,.17l3.24,4.07c.26,.33,.8,.15,.8-.27v-3.52c0-.24,.2-.44,.45-.44h0c.25,0,.45,.2,.45,.44v6c0,.33-.27,.59-.6,.59h-.08c-.14,0-.27-.06-.35-.17l-3.85-4.85c-.26-.33-.8-.15-.8,.27Z"/><path d="M40.02,36.9h0c-.19,0-.32-.2-.23-.38l3.29-6.64c.04-.08,.12-.14,.21-.14l1.11-.09c.11,0,.21,.05,.26,.14l3.35,6.74c.09,.17-.04,.38-.23,.38h-.64c-.1,0-.19-.06-.23-.14l-.63-1.25c-.04-.09-.13-.14-.23-.14h-4.91c-.1,0-.19,.06-.23,.14l-.63,1.25c-.04,.09-.13,.14-.23,.14Zm1.68-2.2h3.74c.19,0,.32-.2,.23-.38l-1.88-3.78c-.1-.19-.37-.19-.47,0l-1.87,3.78c-.09,.17,.04,.38,.23,.38Z"/><path d="M46.71,29.93h0c0-.18,.15-.33,.33-.33h6.95c.18,0,.33,.15,.33,.33h0c0,.18-.15,.33-.33,.33h-2.69c-.18,0-.33,.15-.33,.33v5.84c0,.18-.15,.33-.33,.33h-.27c-.18,0-.33-.15-.33-.33v-5.84c0-.18-.15-.33-.33-.33h-2.69c-.18,0-.33-.15-.33-.33Z"/></svg>